<?xml version="1.0" encoding="utf-8"?>
<!DOCTYPE svg PUBLIC "-//W3C//DTD SVG 20010904//EN" "http://www.w3.org/TR/2001/REC-SVG-20010904/DTD/svg10.dtd">
<svg version="1.0" xmlns="http://www.w3.org/2000/svg" width="87pt" height="73pt" viewBox="0 0 87 73" style="" preserveAspectRatio="xMidYMid meet">
<g fill="#005AE0FF" stroke="#005AE0FF">
<path d="M 23.143 23.890 C 22.197 24.490 22.122 24.957 22.893 25.434 C 25.475 27.030 23.304 43.326 20.208 45.590 C 18.670 46.715 18.772 46.905 21.251 47.527 C 22.763 47.906 25.033 47.958 26.294 47.641 C 28.333 47.129 28.584 46.475 28.544 41.783 L 28.500 36.500 32.750 36.193 C 36.962 35.888 37.000 35.915 37.000 39.220 C 37.000 41.054 36.297 43.559 35.438 44.785 C 33.275 47.873 34.231 48.089 48.666 47.769 C 58.949 47.541 61.112 47.211 62.896 45.595 C 66.227 42.579 65.619 37.486 61.672 35.331 C 59.974 34.404 60.027 34.212 62.422 32.643 C 65.718 30.483 65.840 26.596 62.676 24.523 C 60.950 23.392 57.702 23.022 50.040 23.084 C 44.368 23.130 39.172 23.381 38.493 23.641 C 37.660 23.961 37.421 25.559 37.759 28.557 L 38.260 33.000 33.630 33.000 C 28.475 33.000 27.627 31.405 30.558 27.221 C 31.415 25.997 31.838 24.547 31.499 23.998 C 30.746 22.780 25.013 22.706 23.143 23.890 M 58.800 37.200 C 59.460 37.860 60.000 39.345 60.000 40.500 C 60.000 43.500 58.100 45.000 54.300 45.000 C 51.056 45.000 51.000 44.924 51.000 40.500 C 51.000 36.076 51.056 36.000 54.300 36.000 C 56.115 36.000 58.140 36.540 58.800 37.200 M 47.000 30.451 C 47.000 37.479 45.081 45.000 43.288 45.000 C 41.971 45.000 41.845 43.924 42.436 37.750 C 43.353 28.175 43.940 26.000 45.608 26.000 C 46.589 26.000 47.000 27.315 47.000 30.451 M 59.824 28.298 C 60.325 30.940 58.157 33.000 54.878 33.000 C 51.910 33.000 51.560 32.246 52.644 28.196 C 53.147 26.321 53.840 25.949 56.372 26.196 C 58.423 26.396 59.600 27.113 59.824 28.298 "/></g>
<g fill="#548FE6FF" stroke="#548FE6FF">
<path d="M 28.492 46.147 C 28.604 47.666 28.904 47.965 29.441 47.096 C 29.873 46.397 29.799 45.399 29.277 44.877 C 28.680 44.280 28.389 44.749 28.492 46.147 "/></g>
<g fill="#C2D6F3FF" stroke="#C2D6F3FF">
<path d="M 22.843 26.613 C 23.446 27.651 23.953 27.964 23.970 27.309 C 23.986 26.654 23.493 25.805 22.874 25.422 C 22.045 24.910 22.037 25.224 22.843 26.613 "/></g>
</svg>
