<?xml version="1.0" encoding="UTF-8"?>
<svg version="1.1" xmlns="http://www.w3.org/2000/svg" width="512" height="512">
<path d="M0 0 C0.99868909 -0.00297112 1.99737819 -0.00594224 3.02633059 -0.0090034 C6.35908455 -0.01764635 9.69180239 -0.01919493 13.02456665 -0.02069092 C15.42015662 -0.02532233 17.81574585 -0.03034742 20.21133423 -0.03573608 C26.71186048 -0.04883371 33.21237985 -0.05533771 39.71291685 -0.05974674 C43.78023756 -0.06251761 47.84755591 -0.06675656 51.91487503 -0.07125092 C63.19913521 -0.08343966 74.48339352 -0.09373856 85.76766014 -0.09712601 C86.48888342 -0.09734557 87.2101067 -0.09756514 87.95318524 -0.09779136 C88.67603937 -0.09800964 89.39889351 -0.09822791 90.14365232 -0.09845281 C91.60818887 -0.09889626 93.07272542 -0.09934282 94.53726196 -0.09979248 C95.2637076 -0.10001391 95.99015323 -0.10023534 96.73861237 -0.10046348 C108.48858398 -0.10440477 120.23849332 -0.12184006 131.98844092 -0.145152 C144.08217627 -0.16895013 156.17588049 -0.18133175 168.26963961 -0.18249393 C175.04751456 -0.18340615 181.82530843 -0.18904286 188.60316086 -0.20731354 C194.98736375 -0.22388814 201.37141365 -0.2259044 207.75563049 -0.21717453 C210.08628883 -0.21640908 212.41695571 -0.22068117 214.74759293 -0.23063278 C258.07962913 -0.40465983 296.27158717 14.14096113 327.37026978 44.66778564 C335.82133285 53.25263113 342.72223089 62.77794547 348.81997681 73.14044189 C349.16657349 73.72519287 349.51317017 74.30994385 349.87026978 74.91241455 C362.01010239 95.68527045 368.98307225 119.22610484 368.9604187 143.32046509 C368.96487538 144.81849873 368.96487538 144.81849873 368.9694221 146.34679568 C368.97806505 149.67954963 368.97961363 153.01226748 368.98110962 156.34503174 C368.98574103 158.7406217 368.99076612 161.13621093 368.99615479 163.53179932 C369.00925242 170.03232557 369.01575642 176.53284494 369.02016544 183.03338194 C369.02293631 187.10070264 369.02717527 191.168021 369.03166962 195.23534012 C369.04385836 206.5196003 369.05415726 217.80385861 369.05754471 229.08812523 C369.05776427 229.80934851 369.05798384 230.53057179 369.05821006 231.27365033 C369.05842834 231.99650446 369.05864662 232.7193586 369.05887151 233.46411741 C369.05931496 234.92865396 369.05976152 236.3931905 369.06021118 237.85772705 C369.06043261 238.58417268 369.06065404 239.31061832 369.06088218 240.05907746 C369.06482347 251.80904907 369.08225876 263.55895841 369.1055707 275.308906 C369.12936883 287.40264135 369.14175045 299.49634558 369.14291263 311.5901047 C369.14382485 318.36797965 369.14946156 325.14577352 369.16773224 331.92362595 C369.18430684 338.30782883 369.1863231 344.69187874 369.17759323 351.07609558 C369.17682778 353.40675392 369.18109987 355.7374208 369.19105148 358.06805801 C369.36507853 401.40009422 354.81945758 439.59205226 324.29263306 470.69073486 C315.70778757 479.14179794 306.18247323 486.04269597 295.81997681 492.14044189 C295.23522583 492.48703857 294.65047485 492.83363525 294.04800415 493.19073486 C273.27514825 505.33056748 249.73431386 512.30353734 225.63995361 512.28088379 C224.64126452 512.28385491 223.64257542 512.28682603 222.61362302 512.28988719 C219.28086907 512.29853014 215.94815122 512.30007872 212.61538696 512.30157471 C210.219797 512.30620611 207.82420777 512.31123121 205.42861938 512.31661987 C198.92809313 512.3297175 192.42757376 512.3362215 185.92703676 512.34063053 C181.85971606 512.3434014 177.7923977 512.34764035 173.72507858 512.3521347 C162.4408184 512.36432345 151.15656009 512.37462235 139.87229347 512.3780098 C138.79045855 512.37833915 138.79045855 512.37833915 137.68676838 512.37867515 C136.96391424 512.37889343 136.2410601 512.3791117 135.49630129 512.3793366 C134.03176474 512.37978005 132.5672282 512.38022661 131.10269165 512.38067627 C130.37624602 512.3808977 129.64980038 512.38111913 128.90134124 512.38134727 C117.15136963 512.38528855 105.40146029 512.40272385 93.6515127 512.42603579 C81.55777735 512.44983392 69.46407312 512.46221554 57.370314 512.46337771 C50.59243905 512.46428994 43.81464518 512.46992664 37.03679276 512.48819733 C30.65258987 512.50477193 24.26853996 512.50678819 17.88432312 512.49805832 C15.55366478 512.49729287 13.2229979 512.50156496 10.89236069 512.51151657 C-32.43967552 512.68554362 -70.63163355 498.13992266 -101.73031616 467.61309814 C-110.18137924 459.02825266 -117.08227727 449.50293832 -123.18002319 439.14044189 C-123.52661987 438.55569092 -123.87321655 437.97093994 -124.23031616 437.36846924 C-139.15366328 411.83265263 -143.96888288 384.22270078 -143.82699585 354.93341064 C-143.83379502 352.5269607 -143.84271086 350.12051597 -143.85354614 347.71408081 C-143.87607264 341.2594098 -143.86761464 334.80514453 -143.85165071 328.35046768 C-143.84267249 324.30057544 -143.84447118 320.25073325 -143.84910202 316.20083618 C-143.84986819 315.52315191 -143.85063435 314.84546765 -143.85142373 314.14724749 C-143.85302277 312.7694531 -143.85464384 311.39165874 -143.85628669 310.0138644 C-143.87045789 297.17115175 -143.8542884 284.32861914 -143.82728486 271.48593605 C-143.80495393 260.5272569 -143.80883651 249.56884283 -143.83187866 238.61016846 C-143.85879081 225.80542442 -143.86908541 213.00083715 -143.85381734 200.19606876 C-143.85222502 198.82406174 -143.85065316 197.45205468 -143.84910202 196.08004761 C-143.84833064 195.40544076 -143.84755927 194.73083391 -143.84676451 194.03578442 C-143.84249339 189.33985864 -143.8498857 184.64406472 -143.86149979 179.94815063 C-143.87611257 173.59803788 -143.86562045 167.2484178 -143.8370285 160.89835739 C-143.83050645 158.58998806 -143.83215941 156.2815761 -143.84334183 153.97322464 C-144.02984188 111.50758545 -129.37532516 73.193066 -99.75082397 42.66778564 C-73.70742027 16.77431011 -36.88675524 -0.03468097 0 0 Z " fill="#7210C8" transform="translate(143.18002319335938,-0.14044189453125)"/>
<path d="M0 0 C6.83024307 -0.85131584 13.1932854 -1.57425664 19.36102295 1.88516235 C22.67107871 4.70763673 25.66189408 7.67699239 28.6484375 10.83203125 C29.80990178 11.99801739 30.97491785 13.1604745 32.14315796 14.31967163 C35.2822479 17.45419901 38.36978468 20.63531413 41.44993591 23.8276329 C44.68536081 27.16356778 47.96663365 30.45378815 51.24316406 33.74926758 C57.43060856 39.98630125 63.57616205 46.2629541 69.70745087 52.55514622 C76.69387714 59.72085743 83.72618413 66.84080058 90.76257706 73.95739937 C105.22641968 88.58816248 119.63212972 103.27501784 134 118 C137.70320065 116.45449001 140.00220004 114.2110961 142.7906189 111.35568237 C143.25785075 110.88028145 143.7250826 110.40488053 144.20647299 109.91507351 C145.7692398 108.32284698 147.32466536 106.72363568 148.88037109 105.12451172 C150.00054958 103.98084604 151.12128096 102.83772168 152.24252319 101.69509888 C154.65647403 99.23416008 157.0678656 96.77074961 159.47773361 94.30581284 C163.29382057 90.40535243 167.12401871 86.51896303 170.95791626 82.63601685 C171.60535683 81.98019965 172.2527974 81.32438246 172.91985738 80.64869201 C174.24387199 79.30766961 175.56793562 77.96669559 176.89204717 76.6257689 C185.81646289 67.58757892 194.73279911 58.54209852 203.60302734 49.45068359 C209.58828403 43.31638732 215.5981744 37.20745046 221.63761961 31.12648213 C224.83064117 27.90954498 228.0098411 24.68122875 231.1593132 21.42159653 C234.12528417 18.35233475 237.1228329 15.31778408 240.14709854 12.30598068 C241.24697888 11.1990916 242.33499868 10.08026002 243.40940857 8.94863129 C244.88852397 7.39447484 246.40591065 5.89047147 247.93954468 4.39035034 C249.19552995 3.11111096 249.19552995 3.11111096 250.47688866 1.80602837 C254 0 254 0 268 0 C268 99 268 198 268 300 C247.21 300 226.42 300 205 300 C204.67 247.2 204.34 194.4 204 140 C181.56 162.44 159.12 184.88 136 208 C132.113869 206.0569345 129.71080773 204.1378967 126.50775146 201.24621582 C125.69408155 200.51342698 125.69408155 200.51342698 124.86397386 199.76583433 C123.04738698 198.12583497 121.23772146 196.47842876 119.42871094 194.83007812 C118.79308731 194.25337875 118.15746368 193.67667938 117.50257874 193.08250427 C104.83867529 181.58775096 92.40279351 169.85457828 80.03948593 158.03784943 C72.18137875 150.53586867 64.27015556 143.11733842 56.17675781 135.86914062 C-2.13300141 83.53817598 -2.13300141 83.53817598 -4.27702475 50.46584606 C-5.04922366 33.56087217 -3.1439876 16.59200739 0 0 Z " fill="#FEFEFE" transform="translate(122,106)"/>
<path d="M0 0 C12.43900673 6.21950336 23.36824917 16.10751437 33.75 25.25 C34.44519871 25.86066441 35.14039742 26.47132881 35.85666275 27.1004982 C54.17632511 43.4384563 65.05873142 59.15247032 66.73184586 84.11772537 C67.24503038 94.66257371 67.14075718 105.14269778 66.6875 115.6875 C66.61214272 117.44148857 66.61214272 117.44148857 66.53526306 119.23091125 C65.85630313 133.89749724 64.49941828 148.3700827 63 163 C42.21 163 21.42 163 0 163 C0 109.21 0 55.42 0 0 Z " fill="#FDFDFE" transform="translate(122,243)"/>
</svg>
